<svg xmlns="http://www.w3.org/2000/svg" width="17.075" height="18.2" viewBox="0 0 17.075 18.2">
  <g id="wallet" transform="translate(-1.4 -0.9)">
    <g id="_30-ecommerce_-_wallet_money_cash_finance" data-name="30-ecommerce - wallet money cash finance" transform="translate(0.5 1.001)">
      <path id="Path_52" data-name="Path 52" d="M16.75,4.5V1.124A1.124,1.124,0,0,0,15.625,0L2.125,4.5A1.125,1.125,0,0,0,1,5.624v11.25A1.125,1.125,0,0,0,2.125,18H16.75a1.125,1.125,0,0,0,1.125-1.125V5.624A1.124,1.124,0,0,0,16.75,4.5ZM15.062,1.124a.563.563,0,0,1,.563.563V4.5H5.781Zm1.688,11.25H14.5V11.249h2.25Zm0-2.25H13.375V13.5H16.75v2.812a.563.563,0,0,1-.562.563H2.687a.563.563,0,0,1-.562-.563V6.186a.563.563,0,0,1,.562-.562h13.5a.563.563,0,0,1,.563.563Z" fill="#363636" stroke="#363636" stroke-width="0.2"/>
    </g>
  </g>
</svg>
