<svg xmlns="http://www.w3.org/2000/svg" width="18.867" height="14.2" viewBox="0 0 18.867 14.2">
  <g id="delivery" transform="translate(0.1 -1.899)">
    <path id="Path_72" data-name="Path 72" d="M17.5,4.908a.584.584,0,0,0-.583-.583H12.833V3.217A1.193,1.193,0,0,0,11.667,2H1.167A1.194,1.194,0,0,0,0,3.217v8.521a1.193,1.193,0,0,0,1.167,1.218H1.18c0,.043-.013.084-.013.127a2.917,2.917,0,0,0,5.833,0c0-.043-.01-.084-.013-.127h3.527c0,.043-.014.084-.014.127a2.917,2.917,0,1,0,5.769-.6h1.814a.584.584,0,0,0,.583-.583ZM12.833,5.5h3.5L16.8,7.842H12.833Zm-8.75,9.318a1.735,1.735,0,1,1,1.75-1.735A1.742,1.742,0,0,1,4.083,14.818ZM11.1,11.335l-.012,0H6.406a2.891,2.891,0,0,0-4.646,0H1.75a.583.583,0,0,1-.583-.582V3.763a.583.583,0,0,1,.583-.582h9.333a.584.584,0,0,1,.583.582v6.992s0,.007,0,.011A2.957,2.957,0,0,0,11.1,11.335Zm2.322,3.484a1.735,1.735,0,1,1,1.75-1.735A1.743,1.743,0,0,1,13.417,14.818Zm2.319-3.485a2.889,2.889,0,0,0-2.9-1.107V8.987h4.2l.469,2.346Z" transform="translate(0 0)" fill="rgba(54,54,54,0.4)" stroke="#fff" stroke-width="0.2"/>
  </g>
</svg>
